<svg width="48" height="28" viewBox="0 0 48 28" fill="none" xmlns="http://www.w3.org/2000/svg">
<path fill-rule="evenodd" clip-rule="evenodd" d="M4.61191 0.512563C5.29771 -0.170854 6.40961 -0.170854 7.09541 0.512563L12.8402 6.23741C16.1741 4.48929 19.9711 3.5 24 3.5C28.0289 3.5 31.8259 4.48929 35.1598 6.23741L40.9046 0.512563C41.5904 -0.170854 42.7023 -0.170854 43.3881 0.512563C44.0739 1.19598 44.0739 2.30402 43.3881 2.98744L38.2139 8.14367C44.149 12.4978 48 19.509 48 27.4167C48 27.6117 47.9977 27.8061 47.993 28H0.00699886C0.00234179 27.8061 0 27.6117 0 27.4167C0 19.509 3.85104 12.4978 9.78611 8.14367L4.61191 2.98744C3.92611 2.30402 3.92611 1.19598 4.61191 0.512563ZM14.6341 19.8333C15.9273 19.8333 16.9756 18.7887 16.9756 17.5C16.9756 16.2113 15.9273 15.1667 14.6341 15.1667C13.341 15.1667 12.2927 16.2113 12.2927 17.5C12.2927 18.7887 13.341 19.8333 14.6341 19.8333ZM35.7073 17.5C35.7073 18.7887 34.659 19.8333 33.3659 19.8333C32.0727 19.8333 31.0244 18.7887 31.0244 17.5C31.0244 16.2113 32.0727 15.1667 33.3659 15.1667C34.659 15.1667 35.7073 16.2113 35.7073 17.5Z" fill="#CE96FF"/>
</svg>
