<svg width="432" height="432" viewBox="0 0 432 432" fill="none" xmlns="http://www.w3.org/2000/svg">
<path d="M184.181 13.266C184.91 12.5517 185.274 12.1945 185.59 11.897C202.436 -3.96567 228.722 -3.96567 245.568 11.897C245.884 12.1945 246.248 12.5517 246.977 13.266C247.415 13.6946 247.633 13.9089 247.841 14.1073C258.621 24.3949 273.896 28.4877 288.375 24.9683C288.654 24.9004 288.951 24.8241 289.544 24.6717C290.532 24.4176 291.027 24.2906 291.449 24.1909C313.969 18.8764 336.733 32.0191 343.391 54.1796C343.516 54.5952 343.653 55.0867 343.927 56.0698C344.092 56.6598 344.174 56.9547 344.255 57.2305C348.446 71.5296 359.628 82.7116 373.927 86.9032C374.203 86.984 374.498 87.0663 375.088 87.2309C376.071 87.5051 376.563 87.6422 376.978 87.767C399.139 94.4247 412.282 117.189 406.967 139.709C406.867 140.131 406.74 140.626 406.486 141.614C406.334 142.207 406.258 142.504 406.19 142.783C402.67 157.262 406.763 172.537 417.051 183.317C417.249 183.525 417.463 183.743 417.892 184.181C418.606 184.91 418.963 185.274 419.261 185.59C435.124 202.436 435.124 228.722 419.261 245.568C418.963 245.884 418.606 246.248 417.892 246.977C417.463 247.415 417.249 247.633 417.051 247.841C406.763 258.621 402.67 273.896 406.19 288.375C406.258 288.654 406.334 288.951 406.486 289.544C406.74 290.532 406.867 291.027 406.967 291.449C412.282 313.969 399.139 336.733 376.978 343.391C376.563 343.516 376.071 343.653 375.088 343.927C374.498 344.092 374.203 344.174 373.927 344.255C359.628 348.446 348.446 359.628 344.255 373.927C344.174 374.203 344.092 374.498 343.927 375.088C343.653 376.071 343.516 376.563 343.391 376.978C336.733 399.139 313.969 412.282 291.449 406.967C291.027 406.867 290.532 406.74 289.544 406.486C288.951 406.334 288.654 406.258 288.375 406.19C273.896 402.67 258.621 406.763 247.841 417.051C247.633 417.249 247.415 417.463 246.977 417.892C246.248 418.606 245.884 418.963 245.568 419.261C228.722 435.124 202.436 435.124 185.59 419.261C185.274 418.963 184.91 418.606 184.181 417.892C183.743 417.463 183.525 417.249 183.317 417.051C172.537 406.763 157.262 402.67 142.783 406.19C142.504 406.258 142.207 406.334 141.614 406.486C140.626 406.74 140.131 406.867 139.709 406.967C117.189 412.282 94.4247 399.139 87.767 376.978C87.6422 376.563 87.5051 376.071 87.2309 375.088C87.0663 374.498 86.984 374.203 86.9032 373.927C82.7116 359.628 71.5296 348.446 57.2305 344.255C56.9547 344.174 56.6598 344.092 56.0698 343.927C55.0867 343.653 54.5952 343.516 54.1796 343.391C32.0191 336.733 18.8764 313.969 24.1909 291.449C24.2906 291.027 24.4176 290.532 24.6717 289.544C24.8241 288.951 24.9004 288.654 24.9683 288.375C28.4877 273.896 24.3949 258.621 14.1073 247.841C13.9089 247.633 13.6946 247.415 13.266 246.977C12.5517 246.248 12.1945 245.884 11.897 245.568C-3.96567 228.722 -3.96567 202.436 11.897 185.59C12.1945 185.274 12.5517 184.91 13.266 184.181C13.6946 183.743 13.9089 183.525 14.1073 183.317C24.3949 172.537 28.4877 157.262 24.9683 142.783C24.9004 142.504 24.8241 142.207 24.6717 141.614C24.4176 140.626 24.2906 140.131 24.1909 139.709C18.8764 117.189 32.0191 94.4247 54.1796 87.767C54.5952 87.6422 55.0867 87.5051 56.0698 87.2309C56.6598 87.0663 56.9547 86.984 57.2305 86.9032C71.5296 82.7116 82.7116 71.5296 86.9032 57.2305C86.984 56.9547 87.0663 56.6598 87.2309 56.0698C87.5051 55.0867 87.6422 54.5952 87.767 54.1796C94.4247 32.0191 117.189 18.8764 139.709 24.1909C140.131 24.2906 140.626 24.4176 141.614 24.6717C142.207 24.8241 142.504 24.9004 142.783 24.9683C157.262 28.4877 172.537 24.3949 183.317 14.1073C183.525 13.9089 183.743 13.6946 184.181 13.266Z" fill="#2A0C35"/>
</svg>
