<svg width="1024" height="1024" viewBox="0 0 1024 1024" fill="none" xmlns="http://www.w3.org/2000/svg">
<path d="M707.158 282.697C682.342 243.317 657.085 203.393 623.532 172.123C589.98 140.776 546.514 118.63 501.949 121.516C462.816 124.089 426.544 145.767 397.91 174.073C369.276 202.379 347.031 237.235 325.15 271.78C265.973 365.04 206.723 458.302 147.546 551.642C119.426 595.933 90.5715 642.175 82.7888 694.967C73.3909 758.752 98.7211 823.708 143.655 866.129C190.644 910.498 266.781 906.911 323.975 894.747C386.676 881.411 447.984 856.304 511.933 856.379C566.706 856.379 619.641 874.941 672.946 888.431C726.175 901.842 783.371 910.107 834.765 890.144C898.568 865.426 944.381 795.168 943.134 723.038C941.959 657.225 871.769 543.687 871.769 543.687C871.769 543.687 762.018 369.702 707.158 282.697Z" fill="#EADDFF"/>
<path d="M513.342 786.863C480.833 786.863 450.113 780.792 421.171 768.649C392.591 756.14 367.589 739.352 346.152 718.269C325.069 696.84 308.278 671.828 295.782 643.247C283.618 614.306 277.558 583.583 277.558 551.074C277.558 518.211 283.629 487.481 295.772 458.9C308.278 430.32 325.069 405.493 346.152 384.41C367.589 362.984 392.591 346.193 421.171 334.04C450.113 321.533 480.833 315.284 513.342 315.284C546.215 315.284 576.935 321.533 605.515 334.05C634.093 346.193 658.92 362.984 680.003 384.41C701.44 405.493 718.22 430.32 730.373 458.9C742.88 487.489 749.137 518.211 749.137 551.074C749.137 583.594 742.88 614.306 730.373 643.247C718.228 671.828 701.44 696.84 680.003 718.269C658.92 739.352 634.093 756.14 605.515 768.649C576.927 780.792 546.215 786.863 513.342 786.863ZM363.296 671.65V430.498C349.621 447.111 338.928 465.969 331.69 486.233C324.185 506.597 320.442 528.212 320.442 551.074C320.442 573.936 324.185 595.725 331.69 616.456C339.019 636.516 349.709 655.182 363.304 671.65H363.296ZM392.769 401.023H634.446C617.836 387.347 598.983 376.651 578.724 369.408C557.994 361.9 536.204 358.157 513.342 358.157C490.483 358.157 468.69 361.9 447.97 369.408C427.908 376.735 409.242 387.428 392.769 401.023ZM513.342 604.667L594.257 443.899H432.961L513.342 604.667ZM534.779 658.249H620.517V486.772L534.779 658.249ZM406.17 658.249H491.905L406.17 486.772V658.249ZM513.342 743.99C536.193 743.99 557.986 740.247 578.714 732.739C599.433 725.235 618.011 714.701 634.438 701.125H392.758C409.231 714.722 427.9 725.412 447.962 732.739C468.682 740.247 490.472 743.99 513.334 743.99H513.342ZM663.38 671.65C676.974 655.182 687.667 636.516 694.994 616.456C702.502 595.725 706.245 573.936 706.245 551.074C706.245 528.212 702.502 506.597 694.994 486.233C687.489 465.502 676.958 446.933 663.38 430.498V671.65Z" fill="#4F378A"/>
</svg>
