<svg width="380" height="380" viewBox="0 0 380 380" fill="none" xmlns="http://www.w3.org/2000/svg">
<path d="M262.422 104.907C253.213 90.2936 243.84 75.4777 231.389 63.8739C218.938 52.2412 202.808 44.023 186.27 45.0937C171.748 46.0486 158.288 54.0932 147.662 64.5974C137.036 75.1015 128.781 88.0365 120.661 100.856C98.7011 135.464 76.7136 170.073 54.7533 204.711C44.3181 221.147 33.6105 238.307 30.7224 257.898C27.2349 281.568 36.6348 305.673 53.3093 321.415C70.7467 337.88 99.0008 336.549 120.225 332.035C143.493 327.086 166.244 317.769 189.975 317.797C210.301 317.797 229.945 324.685 249.726 329.691C269.479 334.668 290.704 337.735 309.776 330.327C333.453 321.154 350.454 295.082 349.991 268.315C349.555 243.892 323.508 201.759 323.508 201.759C323.508 201.759 282.78 137.194 262.422 104.907Z" fill="#EADDFF"/>
<path d="M190.498 292C178.434 292 167.034 289.747 156.294 285.241C145.688 280.599 136.41 274.369 128.455 266.545C120.631 258.593 114.4 249.311 109.763 238.705C105.249 227.965 103 216.564 103 204.5C103 192.305 105.253 180.901 109.759 170.295C114.4 159.689 120.631 150.476 128.455 142.652C136.41 134.701 145.688 128.47 156.294 123.96C167.034 119.319 178.434 117 190.498 117C202.697 117 214.097 119.319 224.703 123.964C235.308 128.47 244.521 134.701 252.345 142.652C260.3 150.476 266.527 159.689 271.037 170.295C275.678 180.904 278 192.305 278 204.5C278 216.568 275.678 227.965 271.037 238.705C266.53 249.311 260.3 258.593 252.345 266.545C244.521 274.369 235.308 280.599 224.703 285.241C214.094 289.747 202.697 292 190.498 292ZM134.817 249.245V159.755C129.742 165.92 125.774 172.918 123.088 180.438C120.303 187.995 118.914 196.016 118.914 204.5C118.914 212.984 120.303 221.07 123.088 228.763C125.808 236.207 129.775 243.134 134.82 249.245H134.817ZM145.754 148.817H235.439C229.275 143.742 222.279 139.773 214.761 137.085C207.068 134.299 198.982 132.91 190.498 132.91C182.015 132.91 173.928 134.299 166.239 137.085C158.794 139.804 151.867 143.772 145.754 148.817ZM190.498 224.388L220.525 164.728H160.669L190.498 224.388ZM198.453 244.272H230.27V180.638L198.453 244.272ZM150.727 244.272H182.543L150.727 180.638V244.272ZM190.498 276.09C198.978 276.09 207.065 274.701 214.757 271.915C222.446 269.13 229.34 265.221 235.436 260.183H145.75C151.863 265.229 158.791 269.196 166.236 271.915C173.925 274.701 182.011 276.09 190.495 276.09H190.498ZM246.176 249.245C251.221 243.134 255.189 236.207 257.908 228.763C260.694 221.07 262.083 212.984 262.083 204.5C262.083 196.016 260.694 187.995 257.908 180.438C255.123 172.745 251.215 165.854 246.176 159.755V249.245Z" fill="#4F378A"/>
</svg>
